<?xml version="1.0" encoding="utf-8"?>
<svg xmlns="http://www.w3.org/2000/svg" viewBox="0 120 500 250">
  <g transform="matrix(1.217617, 0, 0, 1.217617, -771.013317, 230.207264)" style="">
    <path d="M 756.034 -16.388 C 756.034 17.91 776.767 46.405 804.034 52.083 L 804.034 54.923 C 769.002 50.056 742.034 19.984 742.034 -16.388 C 742.034 -52.759 769.002 -82.832 804.034 -87.699 L 804.034 -84.859 C 776.767 -79.181 756.034 -50.686 756.034 -16.388 Z M 872.034 -16.388 C 872.034 -42.612 859.913 -65.444 842.018 -77.278 L 842.018 -82.747 C 867.882 -71.827 886.034 -46.227 886.034 -16.388 C 886.034 13.452 867.882 39.051 842.018 49.971 L 842.018 44.502 C 859.913 32.668 872.034 9.836 872.034 -16.388 Z" style="stroke-width: 1; fill: rgb(255, 255, 255);"/>
    <path d="M 810.034 53.112 L 821.044 53.112 L 821.044 -85.888 L 810.034 -85.888 L 810.034 -88.388 L 863.034 -88.388 C 902.799 -88.388 935.034 -56.153 935.034 -16.388 C 935.034 23.376 902.799 55.612 863.034 55.612 L 810.034 55.612 L 810.034 53.112 Z M 863.034 53.112 C 895.067 53.112 921.034 21.996 921.034 -16.388 C 921.034 -54.772 895.067 -85.888 863.034 -85.888 L 836.582 -85.888 L 836.582 53.112 L 863.034 53.112 Z" style="stroke-width: 1; fill: rgb(255, 255, 255);"/>
  </g>
  <path d="M 31.728 327.491 Q 35.94 327.491 39.288 328.976 Q 42.636 330.461 44.985 332.972 Q 47.334 335.483 48.603 338.804 Q 49.872 342.125 49.872 345.743 Q 49.872 349.793 48.387 353.195 Q 46.902 356.597 44.31 359.027 Q 41.718 361.457 38.289 362.834 Q 34.86 364.211 30.972 364.211 Q 26.814 364.211 23.493 362.699 Q 20.172 361.187 17.877 358.703 Q 15.582 356.219 14.34 352.979 Q 13.098 349.739 13.098 346.229 Q 13.098 342.773 14.34 339.398 Q 15.582 336.023 17.985 333.377 Q 20.388 330.731 23.844 329.111 Q 27.3 327.491 31.728 327.491 Z M 31.674 362.321 Q 35.292 362.159 38.019 360.674 Q 40.746 359.189 42.582 356.894 Q 44.418 354.599 45.309 351.845 Q 46.2 349.091 46.2 346.391 Q 46.2 343.421 45.12 340.397 Q 44.04 337.373 42.042 334.916 Q 40.044 332.459 37.263 330.92 Q 34.482 329.381 31.026 329.381 Q 27.678 329.381 25.032 330.866 Q 22.386 332.351 20.523 334.673 Q 18.66 336.995 17.688 339.857 Q 16.716 342.719 16.716 345.473 Q 16.716 348.443 17.85 351.44 Q 18.984 354.437 20.982 356.867 Q 22.98 359.297 25.707 360.809 Q 28.434 362.321 31.674 362.321 Z M 69.983 345.797 L 62.477 331.757 Q 62.207 331.325 61.856 330.758 Q 61.505 330.191 61.127 329.705 Q 60.749 329.219 60.29 328.895 Q 59.831 328.571 59.345 328.571 L 59.345 328.031 L 67.013 328.031 L 67.013 328.571 Q 66.689 328.571 66.284 329.003 Q 65.879 329.435 65.879 330.083 Q 65.879 330.461 66.095 330.839 L 72.197 342.179 L 77.759 331.379 Q 77.759 331.217 77.921 331.055 Q 78.029 330.785 78.164 330.488 Q 78.299 330.191 78.299 329.921 Q 78.299 329.057 77.705 328.814 Q 77.111 328.571 76.949 328.571 L 76.949 328.031 L 82.943 328.031 L 82.943 328.571 Q 82.025 328.571 81.188 329.57 Q 80.351 330.569 79.865 331.541 L 73.277 344.123 L 81.701 359.999 Q 81.971 360.485 82.349 361.025 Q 82.727 361.565 83.159 362.051 Q 83.591 362.537 84.05 362.834 Q 84.509 363.131 84.995 363.131 L 84.995 363.671 L 77.327 363.671 L 77.327 363.131 Q 77.651 363.131 77.975 362.699 Q 78.299 362.267 78.299 361.673 Q 78.299 361.295 77.975 360.701 L 71.117 347.849 L 64.367 360.701 Q 64.205 361.025 64.07 361.457 Q 63.935 361.889 63.935 362.267 Q 63.935 363.131 64.745 363.131 L 64.745 363.671 L 58.859 363.671 L 58.859 363.131 Q 59.237 363.131 59.723 362.888 Q 60.209 362.645 60.695 362.267 Q 61.181 361.889 61.613 361.403 Q 62.045 360.917 62.315 360.485 Z M 104.256 363.131 L 104.526 363.131 L 104.526 363.671 L 96.804 363.671 L 96.804 363.131 L 97.074 363.131 Q 97.506 363.131 97.83 362.834 Q 98.154 362.537 98.397 362.105 Q 98.64 361.673 98.748 361.187 Q 98.856 360.701 98.856 360.269 L 98.856 331.379 Q 98.856 331.001 98.748 330.515 Q 98.64 330.029 98.424 329.597 Q 98.208 329.165 97.857 328.868 Q 97.506 328.571 97.074 328.571 L 96.804 328.571 L 96.804 328.031 L 117.54 328.031 L 117.54 333.053 L 117 333.053 Q 117 331.811 116.163 330.866 Q 115.326 329.921 113.544 329.921 L 102.474 329.921 L 102.474 343.583 L 111.438 343.583 Q 112.68 343.583 113.517 342.827 Q 114.354 342.071 114.354 341.045 L 114.894 341.045 L 114.894 347.795 L 114.354 347.795 Q 114.354 346.823 113.544 346.121 Q 112.734 345.419 111.438 345.419 L 102.474 345.419 L 102.474 360.269 Q 102.474 360.701 102.582 361.187 Q 102.69 361.673 102.933 362.105 Q 103.176 362.537 103.5 362.834 Q 103.824 363.131 104.256 363.131 Z M 145.328 327.491 Q 149.54 327.491 152.888 328.976 Q 156.236 330.461 158.585 332.972 Q 160.934 335.483 162.203 338.804 Q 163.472 342.125 163.472 345.743 Q 163.472 349.793 161.987 353.195 Q 160.502 356.597 157.91 359.027 Q 155.318 361.457 151.889 362.834 Q 148.46 364.211 144.572 364.211 Q 140.414 364.211 137.093 362.699 Q 133.772 361.187 131.477 358.703 Q 129.182 356.219 127.94 352.979 Q 126.698 349.739 126.698 346.229 Q 126.698 342.773 127.94 339.398 Q 129.182 336.023 131.585 333.377 Q 133.988 330.731 137.444 329.111 Q 140.9 327.491 145.328 327.491 Z M 145.274 362.321 Q 148.892 362.159 151.619 360.674 Q 154.346 359.189 156.182 356.894 Q 158.018 354.599 158.909 351.845 Q 159.8 349.091 159.8 346.391 Q 159.8 343.421 158.72 340.397 Q 157.64 337.373 155.642 334.916 Q 153.644 332.459 150.863 330.92 Q 148.082 329.381 144.626 329.381 Q 141.278 329.381 138.632 330.866 Q 135.986 332.351 134.123 334.673 Q 132.26 336.995 131.288 339.857 Q 130.316 342.719 130.316 345.473 Q 130.316 348.443 131.45 351.44 Q 132.584 354.437 134.582 356.867 Q 136.58 359.297 139.307 360.809 Q 142.034 362.321 145.274 362.321 Z M 183.872 363.131 L 184.142 363.131 L 184.142 363.671 L 176.528 363.671 L 176.528 363.131 L 176.798 363.131 Q 177.176 363.131 177.5 362.807 Q 177.824 362.483 178.067 362.051 Q 178.31 361.619 178.418 361.106 Q 178.526 360.593 178.526 360.161 L 178.526 331.379 Q 178.526 331.001 178.418 330.515 Q 178.31 330.029 178.067 329.597 Q 177.824 329.165 177.5 328.868 Q 177.176 328.571 176.798 328.571 L 176.528 328.571 L 176.528 328.031 L 185.924 328.031 Q 191.324 328.031 194.267 330.137 Q 197.21 332.243 197.21 336.347 Q 197.21 338.399 196.535 339.938 Q 195.86 341.477 194.726 342.584 Q 193.592 343.691 192.053 344.366 Q 190.514 345.041 188.786 345.365 L 192.674 351.305 Q 194.078 353.465 195.536 355.544 Q 196.994 357.623 198.398 359.837 Q 198.776 360.377 199.235 360.971 Q 199.694 361.565 200.207 362.051 Q 200.72 362.537 201.287 362.834 Q 201.854 363.131 202.448 363.131 L 202.448 363.671 L 200.126 363.671 Q 197.966 363.671 196.589 362.618 Q 195.212 361.565 194.294 360.161 Q 191.864 356.597 189.461 352.925 Q 187.058 349.253 184.682 345.689 Q 184.088 345.635 183.413 345.554 Q 182.738 345.473 182.144 345.365 L 182.144 360.161 Q 182.144 360.593 182.252 361.106 Q 182.36 361.619 182.603 362.051 Q 182.846 362.483 183.143 362.807 Q 183.44 363.131 183.872 363.131 Z M 182.144 329.867 L 182.144 343.583 L 182.414 343.583 Q 182.846 343.637 183.791 343.664 Q 184.736 343.691 186.14 343.691 Q 187.274 343.691 188.543 343.34 Q 189.812 342.989 190.919 342.152 Q 192.026 341.315 192.755 339.965 Q 193.484 338.615 193.484 336.563 Q 193.484 334.511 192.701 333.215 Q 191.918 331.919 190.541 331.163 Q 189.164 330.407 187.22 330.137 Q 185.276 329.867 182.954 329.867 Z M 213.926 363.131 L 214.196 363.131 Q 214.574 363.131 214.898 362.807 Q 215.222 362.483 215.465 362.051 Q 215.708 361.619 215.816 361.106 Q 215.924 360.593 215.924 360.161 L 215.924 331.379 Q 215.924 331.001 215.816 330.515 Q 215.708 330.029 215.492 329.597 Q 215.276 329.165 214.952 328.868 Q 214.628 328.571 214.196 328.571 L 213.926 328.571 L 213.926 328.031 L 224.348 328.031 Q 228.614 328.031 232.016 329.516 Q 235.418 331.001 237.767 333.512 Q 240.116 336.023 241.358 339.263 Q 242.6 342.503 242.6 346.013 Q 242.6 349.307 241.412 352.466 Q 240.224 355.625 237.848 358.109 Q 235.472 360.593 231.908 362.132 Q 228.344 363.671 223.646 363.671 L 213.926 363.671 Z M 238.928 346.823 Q 238.928 343.367 237.686 340.289 Q 236.444 337.211 234.203 334.916 Q 231.962 332.621 228.911 331.271 Q 225.86 329.921 222.296 329.921 L 219.542 329.921 L 219.542 361.781 L 222.404 361.781 Q 225.32 361.781 228.263 360.89 Q 231.206 359.999 233.582 358.136 Q 235.958 356.273 237.443 353.465 Q 238.928 350.657 238.928 346.823 Z M 277.821 363.131 L 278.091 363.131 Q 278.469 363.131 278.793 362.807 Q 279.117 362.483 279.36 362.051 Q 279.603 361.619 279.711 361.106 Q 279.819 360.593 279.819 360.161 L 279.819 331.379 Q 279.819 331.001 279.711 330.515 Q 279.603 330.029 279.387 329.597 Q 279.171 329.165 278.847 328.868 Q 278.523 328.571 278.091 328.571 L 277.821 328.571 L 277.821 328.031 L 288.243 328.031 Q 292.509 328.031 295.911 329.516 Q 299.313 331.001 301.662 333.512 Q 304.011 336.023 305.253 339.263 Q 306.495 342.503 306.495 346.013 Q 306.495 349.307 305.307 352.466 Q 304.119 355.625 301.743 358.109 Q 299.367 360.593 295.803 362.132 Q 292.239 363.671 287.541 363.671 L 277.821 363.671 Z M 302.823 346.823 Q 302.823 343.367 301.581 340.289 Q 300.339 337.211 298.098 334.916 Q 295.857 332.621 292.806 331.271 Q 289.755 329.921 286.191 329.921 L 283.437 329.921 L 283.437 361.781 L 286.299 361.781 Q 289.215 361.781 292.158 360.89 Q 295.101 359.999 297.477 358.136 Q 299.853 356.273 301.338 353.465 Q 302.823 350.657 302.823 346.823 Z M 319.441 363.131 L 319.711 363.131 Q 320.143 363.131 320.467 362.834 Q 320.791 362.537 321.034 362.105 Q 321.277 361.673 321.412 361.187 Q 321.547 360.701 321.547 360.269 L 321.547 331.379 Q 321.547 331.001 321.412 330.515 Q 321.277 330.029 321.034 329.597 Q 320.791 329.165 320.467 328.868 Q 320.143 328.571 319.711 328.571 L 319.441 328.571 L 319.441 328.031 L 340.231 328.031 L 340.231 333.053 L 339.691 333.053 Q 339.583 331.811 338.719 330.866 Q 337.855 329.921 336.019 329.921 L 325.165 329.921 L 325.165 343.583 L 334.129 343.583 Q 335.371 343.583 336.208 342.827 Q 337.045 342.071 337.045 341.045 L 337.585 341.045 L 337.585 347.795 L 337.045 347.795 Q 337.045 346.823 336.235 346.121 Q 335.425 345.419 334.129 345.419 L 325.165 345.419 L 325.165 361.781 L 336.991 361.781 Q 338.017 361.781 338.773 361.295 Q 339.529 360.809 340.042 360.134 Q 340.555 359.459 340.798 358.676 Q 341.041 357.893 341.041 357.353 L 341.581 357.353 L 341.581 363.671 L 319.441 363.671 Z M 359.593 363.131 L 359.863 363.131 L 359.863 363.671 L 353.869 363.671 L 353.869 363.131 L 354.139 363.131 Q 354.517 363.131 354.868 362.807 Q 355.219 362.483 355.435 362.051 Q 355.651 361.619 355.786 361.106 Q 355.921 360.593 355.921 360.161 L 355.921 331.379 Q 355.921 331.001 355.84 330.515 Q 355.759 330.029 355.543 329.597 Q 355.327 329.165 354.949 328.868 Q 354.571 328.571 354.031 328.571 L 353.761 328.571 L 353.761 328.031 L 359.215 328.031 L 378.817 358.919 L 378.817 331.379 Q 378.817 331.001 378.682 330.515 Q 378.547 330.029 378.304 329.597 Q 378.061 329.165 377.737 328.868 Q 377.413 328.571 376.981 328.571 L 376.711 328.571 L 376.711 328.031 L 382.759 328.031 L 382.759 328.571 L 382.489 328.571 Q 382.057 328.571 381.733 328.868 Q 381.409 329.165 381.166 329.597 Q 380.923 330.029 380.815 330.515 Q 380.707 331.001 380.707 331.379 L 380.707 363.671 L 377.359 363.671 L 357.811 332.675 L 357.811 360.161 Q 357.811 360.593 357.919 361.106 Q 358.027 361.619 358.27 362.051 Q 358.513 362.483 358.837 362.807 Q 359.161 363.131 359.593 363.131 Z M 409.789 363.131 L 410.059 363.131 L 410.059 363.671 L 402.391 363.671 L 402.391 363.131 L 402.661 363.131 Q 403.093 363.131 403.417 362.807 Q 403.741 362.483 403.984 362.051 Q 404.227 361.619 404.335 361.106 Q 404.443 360.593 404.443 360.161 L 404.443 330.029 L 398.179 330.029 Q 397.315 330.029 396.667 330.407 Q 396.019 330.785 395.587 331.352 Q 395.155 331.919 394.939 332.594 Q 394.723 333.269 394.723 333.917 L 394.183 333.917 L 394.183 328.031 L 418.429 328.031 L 418.429 333.917 L 417.889 333.917 Q 417.889 333.269 417.673 332.594 Q 417.457 331.919 417.025 331.352 Q 416.593 330.785 415.945 330.407 Q 415.297 330.029 414.433 330.029 L 408.061 330.029 L 408.061 360.161 Q 408.061 360.593 408.169 361.106 Q 408.277 361.619 408.52 362.051 Q 408.763 362.483 409.06 362.807 Q 409.357 363.131 409.789 363.131 Z M 445.309 363.131 L 445.579 363.131 Q 446.875 363.131 446.875 361.943 Q 446.875 361.511 446.713 361.025 L 441.853 347.903 L 432.403 347.903 L 427.705 360.809 Q 427.543 361.241 427.543 361.619 Q 427.543 362.321 427.921 362.726 Q 428.299 363.131 428.731 363.131 L 429.001 363.131 L 429.001 363.671 L 423.007 363.671 L 423.007 363.131 L 423.277 363.131 Q 423.979 363.131 424.654 362.294 Q 425.329 361.457 425.761 360.323 L 438.127 327.383 L 450.223 359.999 Q 450.601 361.079 451.276 362.105 Q 451.951 363.131 453.031 363.131 L 453.301 363.131 L 453.301 363.671 L 445.309 363.671 Z M 432.943 346.067 L 441.259 346.067 L 437.101 334.781 Z M 464.839 363.131 L 465.109 363.131 Q 465.541 363.131 465.865 362.834 Q 466.189 362.537 466.432 362.105 Q 466.675 361.673 466.81 361.187 Q 466.945 360.701 466.945 360.269 L 466.945 331.379 Q 466.945 331.001 466.81 330.515 Q 466.675 330.029 466.432 329.597 Q 466.189 329.165 465.865 328.868 Q 465.541 328.571 465.109 328.571 L 464.839 328.571 L 464.839 328.031 L 472.615 328.031 L 472.615 328.571 L 472.345 328.571 Q 471.913 328.571 471.589 328.868 Q 471.265 329.165 471.049 329.597 Q 470.833 330.029 470.698 330.515 Q 470.563 331.001 470.563 331.379 L 470.563 361.673 L 482.389 361.673 Q 483.415 361.673 484.171 361.187 Q 484.927 360.701 485.44 359.972 Q 485.953 359.243 486.196 358.406 Q 486.439 357.569 486.439 356.867 L 486.979 356.867 L 486.979 363.671 L 464.839 363.671 Z" style="fill: rgb(255, 255, 255); text-wrap-mode: nowrap;"/>
</svg>