<?xml version="1.0" encoding="utf-8"?>
<svg xmlns="http://www.w3.org/2000/svg" viewBox="0 0 500 500">
  <g transform="matrix(2.590674, 0, 0, 2.590674, -1922.368193, 292.455967)" style="">
    <path d="M 756.034 -16.388 C 756.034 17.91 776.767 46.405 804.034 52.083 L 804.034 54.923 C 769.002 50.056 742.034 19.984 742.034 -16.388 C 742.034 -52.759 769.002 -82.832 804.034 -87.699 L 804.034 -84.859 C 776.767 -79.181 756.034 -50.686 756.034 -16.388 Z M 872.034 -16.388 C 872.034 -42.612 859.913 -65.444 842.018 -77.278 L 842.018 -82.747 C 867.882 -71.827 886.034 -46.227 886.034 -16.388 C 886.034 13.452 867.882 39.051 842.018 49.971 L 842.018 44.502 C 859.913 32.668 872.034 9.836 872.034 -16.388 Z" style="stroke-width: 1; fill: rgb(36, 38, 50);"/>
    <path d="M 810.034 53.112 L 821.044 53.112 L 821.044 -85.888 L 810.034 -85.888 L 810.034 -88.388 L 863.034 -88.388 C 902.799 -88.388 935.034 -56.153 935.034 -16.388 C 935.034 23.376 902.799 55.612 863.034 55.612 L 810.034 55.612 L 810.034 53.112 Z M 863.034 53.112 C 895.067 53.112 921.034 21.996 921.034 -16.388 C 921.034 -54.772 895.067 -85.888 863.034 -85.888 L 836.582 -85.888 L 836.582 53.112 L 863.034 53.112 Z" style="stroke-width: 1; fill: rgb(36, 38, 50);"/>
  </g>
  <path transform="matrix(1.47012, 0, 0, 1.47012, 239.68169, -156.975512)" style="fill: rgb(36, 38, 50); text-wrap-mode: nowrap;"/>
</svg>