<?xml version="1.0" encoding="utf-8"?>
<svg xmlns="http://www.w3.org/2000/svg" viewBox="0 0 750 200">
  <g transform="matrix(1.217617, 0, 0, 1.217617, -897.441175, 119.954309)" style="">
    <path d="M 756.034 -16.388 C 756.034 17.91 776.767 46.405 804.034 52.083 L 804.034 54.923 C 769.002 50.056 742.034 19.984 742.034 -16.388 C 742.034 -52.759 769.002 -82.832 804.034 -87.699 L 804.034 -84.859 C 776.767 -79.181 756.034 -50.686 756.034 -16.388 Z M 872.034 -16.388 C 872.034 -42.612 859.913 -65.444 842.018 -77.278 L 842.018 -82.747 C 867.882 -71.827 886.034 -46.227 886.034 -16.388 C 886.034 13.452 867.882 39.051 842.018 49.971 L 842.018 44.502 C 859.913 32.668 872.034 9.836 872.034 -16.388 Z" style="stroke-width: 1; fill: rgb(255, 255, 255);"/>
    <path d="M 810.034 53.112 L 821.044 53.112 L 821.044 -85.888 L 810.034 -85.888 L 810.034 -88.388 L 863.034 -88.388 C 902.799 -88.388 935.034 -56.153 935.034 -16.388 C 935.034 23.376 902.799 55.612 863.034 55.612 L 810.034 55.612 L 810.034 53.112 Z M 863.034 53.112 C 895.067 53.112 921.034 21.996 921.034 -16.388 C 921.034 -54.772 895.067 -85.888 863.034 -85.888 L 836.582 -85.888 L 836.582 53.112 L 863.034 53.112 Z" style="stroke-width: 1; fill: rgb(255, 255, 255);"/>
  </g>
  <path d="M 287.77 80.147 Q 291.982 80.147 295.33 81.632 Q 298.678 83.117 301.027 85.628 Q 303.376 88.139 304.645 91.46 Q 305.914 94.781 305.914 98.399 Q 305.914 102.449 304.429 105.851 Q 302.944 109.253 300.352 111.683 Q 297.76 114.113 294.331 115.49 Q 290.902 116.867 287.014 116.867 Q 282.856 116.867 279.535 115.355 Q 276.214 113.843 273.919 111.359 Q 271.624 108.875 270.382 105.635 Q 269.14 102.395 269.14 98.885 Q 269.14 95.429 270.382 92.054 Q 271.624 88.679 274.027 86.033 Q 276.43 83.387 279.886 81.767 Q 283.342 80.147 287.77 80.147 Z M 287.716 114.977 Q 291.334 114.815 294.061 113.33 Q 296.788 111.845 298.624 109.55 Q 300.46 107.255 301.351 104.501 Q 302.242 101.747 302.242 99.047 Q 302.242 96.077 301.162 93.053 Q 300.082 90.029 298.084 87.572 Q 296.086 85.115 293.305 83.576 Q 290.524 82.037 287.068 82.037 Q 283.72 82.037 281.074 83.522 Q 278.428 85.007 276.565 87.329 Q 274.702 89.651 273.73 92.513 Q 272.758 95.375 272.758 98.129 Q 272.758 101.099 273.892 104.096 Q 275.026 107.093 277.024 109.523 Q 279.022 111.953 281.749 113.465 Q 284.476 114.977 287.716 114.977 Z M 326.035 98.453 L 318.529 84.413 Q 318.259 83.981 317.908 83.414 Q 317.557 82.847 317.179 82.361 Q 316.801 81.875 316.342 81.551 Q 315.883 81.227 315.397 81.227 L 315.397 80.687 L 323.065 80.687 L 323.065 81.227 Q 322.741 81.227 322.336 81.659 Q 321.931 82.091 321.931 82.739 Q 321.931 83.117 322.147 83.495 L 328.249 94.835 L 333.811 84.035 Q 333.811 83.873 333.973 83.711 Q 334.081 83.441 334.216 83.144 Q 334.351 82.847 334.351 82.577 Q 334.351 81.713 333.757 81.47 Q 333.163 81.227 333.001 81.227 L 333.001 80.687 L 338.995 80.687 L 338.995 81.227 Q 338.077 81.227 337.24 82.226 Q 336.403 83.225 335.917 84.197 L 329.329 96.779 L 337.753 112.655 Q 338.023 113.141 338.401 113.681 Q 338.779 114.221 339.211 114.707 Q 339.643 115.193 340.102 115.49 Q 340.561 115.787 341.047 115.787 L 341.047 116.327 L 333.379 116.327 L 333.379 115.787 Q 333.703 115.787 334.027 115.355 Q 334.351 114.923 334.351 114.329 Q 334.351 113.951 334.027 113.357 L 327.169 100.505 L 320.419 113.357 Q 320.257 113.681 320.122 114.113 Q 319.987 114.545 319.987 114.923 Q 319.987 115.787 320.797 115.787 L 320.797 116.327 L 314.911 116.327 L 314.911 115.787 Q 315.289 115.787 315.775 115.544 Q 316.261 115.301 316.747 114.923 Q 317.233 114.545 317.665 114.059 Q 318.097 113.573 318.367 113.141 Z M 360.311 115.787 L 360.581 115.787 L 360.581 116.327 L 352.859 116.327 L 352.859 115.787 L 353.129 115.787 Q 353.561 115.787 353.885 115.49 Q 354.209 115.193 354.452 114.761 Q 354.695 114.329 354.803 113.843 Q 354.911 113.357 354.911 112.925 L 354.911 84.035 Q 354.911 83.657 354.803 83.171 Q 354.695 82.685 354.479 82.253 Q 354.263 81.821 353.912 81.524 Q 353.561 81.227 353.129 81.227 L 352.859 81.227 L 352.859 80.687 L 373.595 80.687 L 373.595 85.709 L 373.055 85.709 Q 373.055 84.467 372.218 83.522 Q 371.381 82.577 369.599 82.577 L 358.529 82.577 L 358.529 96.239 L 367.493 96.239 Q 368.735 96.239 369.572 95.483 Q 370.409 94.727 370.409 93.701 L 370.949 93.701 L 370.949 100.451 L 370.409 100.451 Q 370.409 99.479 369.599 98.777 Q 368.789 98.075 367.493 98.075 L 358.529 98.075 L 358.529 112.925 Q 358.529 113.357 358.637 113.843 Q 358.745 114.329 358.988 114.761 Q 359.231 115.193 359.555 115.49 Q 359.879 115.787 360.311 115.787 Z M 401.386 80.147 Q 405.598 80.147 408.946 81.632 Q 412.294 83.117 414.643 85.628 Q 416.992 88.139 418.261 91.46 Q 419.53 94.781 419.53 98.399 Q 419.53 102.449 418.045 105.851 Q 416.56 109.253 413.968 111.683 Q 411.376 114.113 407.947 115.49 Q 404.518 116.867 400.63 116.867 Q 396.472 116.867 393.151 115.355 Q 389.83 113.843 387.535 111.359 Q 385.24 108.875 383.998 105.635 Q 382.756 102.395 382.756 98.885 Q 382.756 95.429 383.998 92.054 Q 385.24 88.679 387.643 86.033 Q 390.046 83.387 393.502 81.767 Q 396.958 80.147 401.386 80.147 Z M 401.332 114.977 Q 404.95 114.815 407.677 113.33 Q 410.404 111.845 412.24 109.55 Q 414.076 107.255 414.967 104.501 Q 415.858 101.747 415.858 99.047 Q 415.858 96.077 414.778 93.053 Q 413.698 90.029 411.7 87.572 Q 409.702 85.115 406.921 83.576 Q 404.14 82.037 400.684 82.037 Q 397.336 82.037 394.69 83.522 Q 392.044 85.007 390.181 87.329 Q 388.318 89.651 387.346 92.513 Q 386.374 95.375 386.374 98.129 Q 386.374 101.099 387.508 104.096 Q 388.642 107.093 390.64 109.523 Q 392.638 111.953 395.365 113.465 Q 398.092 114.977 401.332 114.977 Z M 439.924 115.787 L 440.194 115.787 L 440.194 116.327 L 432.58 116.327 L 432.58 115.787 L 432.85 115.787 Q 433.228 115.787 433.552 115.463 Q 433.876 115.139 434.119 114.707 Q 434.362 114.275 434.47 113.762 Q 434.578 113.249 434.578 112.817 L 434.578 84.035 Q 434.578 83.657 434.47 83.171 Q 434.362 82.685 434.119 82.253 Q 433.876 81.821 433.552 81.524 Q 433.228 81.227 432.85 81.227 L 432.58 81.227 L 432.58 80.687 L 441.976 80.687 Q 447.376 80.687 450.319 82.793 Q 453.262 84.899 453.262 89.003 Q 453.262 91.055 452.587 92.594 Q 451.912 94.133 450.778 95.24 Q 449.644 96.347 448.105 97.022 Q 446.566 97.697 444.838 98.021 L 448.726 103.961 Q 450.13 106.121 451.588 108.2 Q 453.046 110.279 454.45 112.493 Q 454.828 113.033 455.287 113.627 Q 455.746 114.221 456.259 114.707 Q 456.772 115.193 457.339 115.49 Q 457.906 115.787 458.5 115.787 L 458.5 116.327 L 456.178 116.327 Q 454.018 116.327 452.641 115.274 Q 451.264 114.221 450.346 112.817 Q 447.916 109.253 445.513 105.581 Q 443.11 101.909 440.734 98.345 Q 440.14 98.291 439.465 98.21 Q 438.79 98.129 438.196 98.021 L 438.196 112.817 Q 438.196 113.249 438.304 113.762 Q 438.412 114.275 438.655 114.707 Q 438.898 115.139 439.195 115.463 Q 439.492 115.787 439.924 115.787 Z M 438.196 82.523 L 438.196 96.239 L 438.466 96.239 Q 438.898 96.293 439.843 96.32 Q 440.788 96.347 442.192 96.347 Q 443.326 96.347 444.595 95.996 Q 445.864 95.645 446.971 94.808 Q 448.078 93.971 448.807 92.621 Q 449.536 91.271 449.536 89.219 Q 449.536 87.167 448.753 85.871 Q 447.97 84.575 446.593 83.819 Q 445.216 83.063 443.272 82.793 Q 441.328 82.523 439.006 82.523 Z M 469.984 115.787 L 470.254 115.787 Q 470.632 115.787 470.956 115.463 Q 471.28 115.139 471.523 114.707 Q 471.766 114.275 471.874 113.762 Q 471.982 113.249 471.982 112.817 L 471.982 84.035 Q 471.982 83.657 471.874 83.171 Q 471.766 82.685 471.55 82.253 Q 471.334 81.821 471.01 81.524 Q 470.686 81.227 470.254 81.227 L 469.984 81.227 L 469.984 80.687 L 480.406 80.687 Q 484.672 80.687 488.074 82.172 Q 491.476 83.657 493.825 86.168 Q 496.174 88.679 497.416 91.919 Q 498.658 95.159 498.658 98.669 Q 498.658 101.963 497.47 105.122 Q 496.282 108.281 493.906 110.765 Q 491.53 113.249 487.966 114.788 Q 484.402 116.327 479.704 116.327 L 469.984 116.327 Z M 494.986 99.479 Q 494.986 96.023 493.744 92.945 Q 492.502 89.867 490.261 87.572 Q 488.02 85.277 484.969 83.927 Q 481.918 82.577 478.354 82.577 L 475.6 82.577 L 475.6 114.437 L 478.462 114.437 Q 481.378 114.437 484.321 113.546 Q 487.264 112.655 489.64 110.792 Q 492.016 108.929 493.501 106.121 Q 494.986 103.313 494.986 99.479 Z" transform="matrix(1.944831, 0, 0, 1.944831, -229.535556, -143.684222)" style="fill: rgb(255, 255, 255); text-wrap-mode: nowrap;"/>
  <path transform="matrix(1.944831, 0, 0, 1.944831, -229.535556, -143.684222)" style="fill: rgb(255, 255, 255); text-wrap-mode: nowrap;"/>
  <path d="M 269.518 169.787 L 269.788 169.787 Q 270.166 169.787 270.49 169.463 Q 270.814 169.139 271.057 168.707 Q 271.3 168.275 271.408 167.762 Q 271.516 167.249 271.516 166.817 L 271.516 138.035 Q 271.516 137.657 271.408 137.171 Q 271.3 136.685 271.084 136.253 Q 270.868 135.821 270.544 135.524 Q 270.22 135.227 269.788 135.227 L 269.518 135.227 L 269.518 134.687 L 279.94 134.687 Q 284.206 134.687 287.608 136.172 Q 291.01 137.657 293.359 140.168 Q 295.708 142.679 296.95 145.919 Q 298.192 149.159 298.192 152.669 Q 298.192 155.963 297.004 159.122 Q 295.816 162.281 293.44 164.765 Q 291.064 167.249 287.5 168.788 Q 283.936 170.327 279.238 170.327 L 269.518 170.327 Z M 294.52 153.479 Q 294.52 150.023 293.278 146.945 Q 292.036 143.867 289.795 141.572 Q 287.554 139.277 284.503 137.927 Q 281.452 136.577 277.888 136.577 L 275.134 136.577 L 275.134 168.437 L 277.996 168.437 Q 280.912 168.437 283.855 167.546 Q 286.798 166.655 289.174 164.792 Q 291.55 162.929 293.035 160.121 Q 294.52 157.313 294.52 153.479 Z M 315.129 169.787 L 315.399 169.787 Q 315.831 169.787 316.155 169.49 Q 316.479 169.193 316.722 168.761 Q 316.965 168.329 317.1 167.843 Q 317.235 167.357 317.235 166.925 L 317.235 138.035 Q 317.235 137.657 317.1 137.171 Q 316.965 136.685 316.722 136.253 Q 316.479 135.821 316.155 135.524 Q 315.831 135.227 315.399 135.227 L 315.129 135.227 L 315.129 134.687 L 335.919 134.687 L 335.919 139.709 L 335.379 139.709 Q 335.271 138.467 334.407 137.522 Q 333.543 136.577 331.707 136.577 L 320.853 136.577 L 320.853 150.239 L 329.817 150.239 Q 331.059 150.239 331.896 149.483 Q 332.733 148.727 332.733 147.701 L 333.273 147.701 L 333.273 154.451 L 332.733 154.451 Q 332.733 153.479 331.923 152.777 Q 331.113 152.075 329.817 152.075 L 320.853 152.075 L 320.853 168.437 L 332.679 168.437 Q 333.705 168.437 334.461 167.951 Q 335.217 167.465 335.73 166.79 Q 336.243 166.115 336.486 165.332 Q 336.729 164.549 336.729 164.009 L 337.269 164.009 L 337.269 170.327 L 315.129 170.327 Z M 359.292 169.787 L 359.562 169.787 L 359.562 170.327 L 353.568 170.327 L 353.568 169.787 L 353.838 169.787 Q 354.216 169.787 354.567 169.463 Q 354.918 169.139 355.134 168.707 Q 355.35 168.275 355.485 167.762 Q 355.62 167.249 355.62 166.817 L 355.62 138.035 Q 355.62 137.657 355.539 137.171 Q 355.458 136.685 355.242 136.253 Q 355.026 135.821 354.648 135.524 Q 354.27 135.227 353.73 135.227 L 353.46 135.227 L 353.46 134.687 L 358.914 134.687 L 378.516 165.575 L 378.516 138.035 Q 378.516 137.657 378.381 137.171 Q 378.246 136.685 378.003 136.253 Q 377.76 135.821 377.436 135.524 Q 377.112 135.227 376.68 135.227 L 376.41 135.227 L 376.41 134.687 L 382.458 134.687 L 382.458 135.227 L 382.188 135.227 Q 381.756 135.227 381.432 135.524 Q 381.108 135.821 380.865 136.253 Q 380.622 136.685 380.514 137.171 Q 380.406 137.657 380.406 138.035 L 380.406 170.327 L 377.058 170.327 L 357.51 139.331 L 357.51 166.817 Q 357.51 167.249 357.618 167.762 Q 357.726 168.275 357.969 168.707 Q 358.212 169.139 358.536 169.463 Q 358.86 169.787 359.292 169.787 Z M 413.496 169.787 L 413.766 169.787 L 413.766 170.327 L 406.098 170.327 L 406.098 169.787 L 406.368 169.787 Q 406.8 169.787 407.124 169.463 Q 407.448 169.139 407.691 168.707 Q 407.934 168.275 408.042 167.762 Q 408.15 167.249 408.15 166.817 L 408.15 136.685 L 401.886 136.685 Q 401.022 136.685 400.374 137.063 Q 399.726 137.441 399.294 138.008 Q 398.862 138.575 398.646 139.25 Q 398.43 139.925 398.43 140.573 L 397.89 140.573 L 397.89 134.687 L 422.136 134.687 L 422.136 140.573 L 421.596 140.573 Q 421.596 139.925 421.38 139.25 Q 421.164 138.575 420.732 138.008 Q 420.3 137.441 419.652 137.063 Q 419.004 136.685 418.14 136.685 L 411.768 136.685 L 411.768 166.817 Q 411.768 167.249 411.876 167.762 Q 411.984 168.275 412.227 168.707 Q 412.47 169.139 412.767 169.463 Q 413.064 169.787 413.496 169.787 Z M 453.006 169.787 L 453.276 169.787 Q 454.572 169.787 454.572 168.599 Q 454.572 168.167 454.41 167.681 L 449.55 154.559 L 440.1 154.559 L 435.402 167.465 Q 435.24 167.897 435.24 168.275 Q 435.24 168.977 435.618 169.382 Q 435.996 169.787 436.428 169.787 L 436.698 169.787 L 436.698 170.327 L 430.704 170.327 L 430.704 169.787 L 430.974 169.787 Q 431.676 169.787 432.351 168.95 Q 433.026 168.113 433.458 166.979 L 445.824 134.039 L 457.92 166.655 Q 458.298 167.735 458.973 168.761 Q 459.648 169.787 460.728 169.787 L 460.998 169.787 L 460.998 170.327 L 453.006 170.327 Z M 440.64 152.723 L 448.956 152.723 L 444.798 141.437 Z M 476.542 169.787 L 476.812 169.787 Q 477.244 169.787 477.568 169.49 Q 477.892 169.193 478.135 168.761 Q 478.378 168.329 478.513 167.843 Q 478.648 167.357 478.648 166.925 L 478.648 138.035 Q 478.648 137.657 478.513 137.171 Q 478.378 136.685 478.135 136.253 Q 477.892 135.821 477.568 135.524 Q 477.244 135.227 476.812 135.227 L 476.542 135.227 L 476.542 134.687 L 484.318 134.687 L 484.318 135.227 L 484.048 135.227 Q 483.616 135.227 483.292 135.524 Q 482.968 135.821 482.752 136.253 Q 482.536 136.685 482.401 137.171 Q 482.266 137.657 482.266 138.035 L 482.266 168.329 L 494.092 168.329 Q 495.118 168.329 495.874 167.843 Q 496.63 167.357 497.143 166.628 Q 497.656 165.899 497.899 165.062 Q 498.142 164.225 498.142 163.523 L 498.682 163.523 L 498.682 170.327 L 476.542 170.327 Z" transform="matrix(1.944831, 0, 0, 1.944831, -229.535556, -143.684222)" style="fill: rgb(255, 255, 255); text-wrap-mode: nowrap;"/>
</svg>